<svg width="330" height="69" viewBox="0 0 330 69" fill="none" xmlns="http://www.w3.org/2000/svg">
<mask id="path-1-inside-1_271_664" fill="white">
<path fill-rule="evenodd" clip-rule="evenodd" d="M7.86762 9.75699C7.8382 9.68796 7.81048 9.61856 7.78449 9.54883C3.01648 13.595 0 19.5722 0 26.2402C0 38.4272 10.0766 48.3068 22.5067 48.3068C25.8068 48.3068 28.941 47.6104 31.7647 46.3594C23.5474 45.9146 16.6659 40.3163 14.1513 32.6655C8.21007 31.3806 3.75122 25.9851 3.75122 19.5242C3.75122 15.676 5.33298 12.2058 7.86762 9.75699Z"/>
</mask>
<path d="M7.86762 9.75699L9.25728 11.1953L10.2472 10.2389L9.70745 8.97275L7.86762 9.75699ZM7.78449 9.54883L9.6586 8.85046L8.66343 6.17986L6.49042 8.02391L7.78449 9.54883ZM31.7647 46.3594L32.5749 48.188L31.8728 44.3623L31.7647 46.3594ZM14.1513 32.6655L16.0513 32.0411L15.6937 30.9529L14.5741 30.7107L14.1513 32.6655ZM9.70745 8.97275C9.68994 8.93167 9.67367 8.89091 9.6586 8.85046L5.91038 10.2472C5.94728 10.3462 5.98645 10.4442 6.02779 10.5412L9.70745 8.97275ZM2 26.2402C2 20.1918 4.73318 14.7613 9.07856 11.0737L6.49042 8.02391C1.29977 12.4288 -2 18.9527 -2 26.2402H2ZM22.5067 46.3068C11.1437 46.3068 2 37.2856 2 26.2402H-2C-2 39.5689 9.00942 50.3068 22.5067 50.3068V46.3068ZM30.9546 44.5308C28.3818 45.6707 25.5232 46.3068 22.5067 46.3068V50.3068C26.0903 50.3068 29.5001 49.5502 32.5749 48.188L30.9546 44.5308ZM12.2513 33.29C15.0095 41.6822 22.5732 47.8649 31.6567 48.3565L31.8728 44.3623C24.5216 43.9645 18.3222 38.9505 16.0513 32.0411L12.2513 33.29ZM1.75122 19.5242C1.75122 26.9158 6.85626 33.1341 13.7286 34.6204L14.5741 30.7107C9.56388 29.6272 5.75122 25.0545 5.75122 19.5242H1.75122ZM6.47796 8.31864C3.56412 11.1339 1.75122 15.1188 1.75122 19.5242H5.75122C5.75122 16.2333 7.10185 13.2778 9.25728 11.1953L6.47796 8.31864Z" fill="white" mask="url(#path-1-inside-1_271_664)"/>
<mask id="path-3-inside-2_271_664" fill="white">
<path fill-rule="evenodd" clip-rule="evenodd" d="M52.1325 9.75682C52.1619 9.68784 52.1896 9.61851 52.2155 9.54883C56.9835 13.595 60 19.5722 60 26.2402C60 38.4272 49.9234 48.3068 37.4933 48.3068C34.1932 48.3068 31.059 47.6104 28.2353 46.3594C36.4526 45.9146 43.3341 40.3164 45.8486 32.6656C51.79 31.3808 56.249 25.9852 56.249 19.5242C56.249 15.6759 54.6672 12.2057 52.1325 9.75682Z"/>
</mask>
<path d="M52.1325 9.75682L50.7428 11.1952L49.7529 10.2388L50.2926 8.97266L52.1325 9.75682ZM52.2155 9.54883L50.3414 8.85047L51.3366 6.17985L53.5096 8.02391L52.2155 9.54883ZM28.2353 46.3594L27.4251 48.188L28.1272 44.3623L28.2353 46.3594ZM45.8486 32.6656L43.9486 32.0411L44.3063 30.9529L45.4259 30.7108L45.8486 32.6656ZM50.2926 8.97266C50.3101 8.93162 50.3263 8.89089 50.3414 8.85047L54.0896 10.2472C54.0528 10.3461 54.0136 10.4441 53.9723 10.541L50.2926 8.97266ZM58 26.2402C58 20.1917 55.2668 14.7613 50.9214 11.0737L53.5096 8.02391C58.7002 12.4288 62 18.9527 62 26.2402H58ZM37.4933 46.3068C48.8563 46.3068 58 37.2856 58 26.2402H62C62 39.5688 50.9906 50.3068 37.4933 50.3068V46.3068ZM29.0454 44.5308C31.6182 45.6707 34.4768 46.3068 37.4933 46.3068V50.3068C33.9097 50.3068 30.4999 49.5502 27.4251 48.188L29.0454 44.5308ZM47.7487 33.2901C44.9904 41.6822 37.4268 47.8648 28.3433 48.3564L28.1272 44.3623C35.4784 43.9644 41.6777 38.9505 43.9486 32.0411L47.7487 33.2901ZM58.249 19.5242C58.249 26.9159 53.1438 33.1343 46.2714 34.6204L45.4259 30.7108C50.4363 29.6273 54.249 25.0545 54.249 19.5242H58.249ZM53.5221 8.31845C56.436 11.1337 58.249 15.1187 58.249 19.5242H54.249C54.249 16.2332 52.8983 13.2777 50.7428 11.1952L53.5221 8.31845Z" fill="white" mask="url(#path-3-inside-2_271_664)"/>
<path d="M38.8238 29.7704C35.0225 31.2033 31.1612 35.0531 30.0003 38.196C28.4004 34.2515 24.2702 30.707 21.1768 29.7704C25.0471 28.4499 28.8897 24.5878 30.0003 21.3447C30.5468 23.4802 33.6538 27.6676 38.8238 29.7704Z" fill="white"/>
<mask id="path-6-inside-3_271_664" fill="white">
<path fill-rule="evenodd" clip-rule="evenodd" d="M29.9998 46.117C38.1033 44.227 44.1174 37.2481 44.1174 28.9278C44.1174 20.6075 38.1033 13.6285 29.9998 11.7385C31.4137 11.4087 32.8913 11.2339 34.4116 11.2339C44.6451 11.2339 52.941 19.1557 52.941 28.9278C52.941 38.6998 44.6451 46.6216 34.4116 46.6216C32.8913 46.6216 31.4137 46.4468 29.9998 46.117ZM29.9998 46.117C28.5859 46.4468 27.1083 46.6216 25.588 46.6216C15.3545 46.6216 7.05859 38.6998 7.05859 28.9278C7.05859 19.1557 15.3545 11.2339 25.588 11.2339C27.1083 11.2339 28.5859 11.4087 29.9998 11.7385C21.8963 13.6285 15.8822 20.6075 15.8822 28.9278C15.8822 37.2481 21.8963 44.227 29.9998 46.117Z"/>
</mask>
<path fill-rule="evenodd" clip-rule="evenodd" d="M29.9998 46.117C38.1033 44.227 44.1174 37.2481 44.1174 28.9278C44.1174 20.6075 38.1033 13.6285 29.9998 11.7385C31.4137 11.4087 32.8913 11.2339 34.4116 11.2339C44.6451 11.2339 52.941 19.1557 52.941 28.9278C52.941 38.6998 44.6451 46.6216 34.4116 46.6216C32.8913 46.6216 31.4137 46.4468 29.9998 46.117ZM29.9998 46.117C28.5859 46.4468 27.1083 46.6216 25.588 46.6216C15.3545 46.6216 7.05859 38.6998 7.05859 28.9278C7.05859 19.1557 15.3545 11.2339 25.588 11.2339C27.1083 11.2339 28.5859 11.4087 29.9998 11.7385C21.8963 13.6285 15.8822 20.6075 15.8822 28.9278C15.8822 37.2481 21.8963 44.227 29.9998 46.117Z" fill="#C8A687"/>
<path d="M42.1174 28.9278C42.1174 36.239 36.8235 42.4718 29.5455 44.1693L30.4541 48.0647C39.3831 45.9822 46.1174 38.2571 46.1174 28.9278H42.1174ZM29.5455 13.6862C36.8235 15.3837 42.1174 21.6165 42.1174 28.9278H46.1174C46.1174 19.5984 39.3831 11.8733 30.4541 9.79077L29.5455 13.6862ZM30.4541 13.6862C31.7198 13.391 33.045 13.2339 34.4116 13.2339V9.23389C32.7376 9.23389 31.1076 9.42645 29.5455 9.79077L30.4541 13.6862ZM34.4116 13.2339C43.6285 13.2339 50.941 20.3462 50.941 28.9278H54.941C54.941 17.9652 45.6617 9.23389 34.4116 9.23389V13.2339ZM50.941 28.9278C50.941 37.5093 43.6285 44.6216 34.4116 44.6216V48.6216C45.6617 48.6216 54.941 39.8903 54.941 28.9278H50.941ZM34.4116 44.6216C33.045 44.6216 31.7198 44.4645 30.4541 44.1693L29.5455 48.0647C31.1076 48.4291 32.7376 48.6216 34.4116 48.6216V44.6216ZM29.5455 44.1693C28.2797 44.4645 26.9546 44.6216 25.588 44.6216V48.6216C27.262 48.6216 28.892 48.4291 30.4541 48.0647L29.5455 44.1693ZM25.588 44.6216C16.3711 44.6216 9.05859 37.5093 9.05859 28.9278H5.05859C5.05859 39.8903 14.3379 48.6216 25.588 48.6216V44.6216ZM9.05859 28.9278C9.05859 20.3462 16.3711 13.2339 25.588 13.2339V9.23389C14.3379 9.23389 5.05859 17.9652 5.05859 28.9278H9.05859ZM25.588 13.2339C26.9546 13.2339 28.2797 13.391 29.5455 13.6862L30.4541 9.79077C28.892 9.42644 27.262 9.23389 25.588 9.23389V13.2339ZM17.8822 28.9278C17.8822 21.6165 23.1761 15.3837 30.4541 13.6862L29.5455 9.79077C20.6165 11.8733 13.8822 19.5984 13.8822 28.9278H17.8822ZM30.4541 44.1693C23.1761 42.4718 17.8822 36.239 17.8822 28.9278H13.8822C13.8822 38.2571 20.6165 45.9822 29.5455 48.0647L30.4541 44.1693Z" fill="white" mask="url(#path-6-inside-3_271_664)"/>
<path d="M66.808 44C66.68 44 66.616 43.904 66.616 43.712C66.616 43.52 66.68 43.424 66.808 43.424C67.704 43.424 68.456 43.248 69.064 42.896C69.672 42.512 70.28 41.856 70.888 40.928C71.496 39.968 72.216 38.56 73.048 36.704L83.464 13.808C83.528 13.712 83.672 13.664 83.896 13.664C84.152 13.664 84.296 13.712 84.328 13.808L96.328 37.424C97.448 39.696 98.376 41.264 99.112 42.128C99.848 42.992 100.616 43.424 101.416 43.424C101.576 43.424 101.656 43.52 101.656 43.712C101.656 43.904 101.576 44 101.416 44C100.776 44 99.784 43.968 98.44 43.904C97.032 43.84 96.024 43.808 95.416 43.808C94.616 43.808 93.64 43.84 92.488 43.904C91.4 43.968 90.536 44 89.896 44C89.768 44 89.704 43.904 89.704 43.712C89.704 43.52 89.768 43.424 89.896 43.424C90.728 43.424 91.32 43.344 91.672 43.184C92.056 42.992 92.248 42.672 92.248 42.224C92.248 41.68 91.928 40.768 91.288 39.488L81.544 20.24L83.896 16.112L74.344 37.184C73.928 38.112 73.72 38.976 73.72 39.776C73.72 40.928 74.12 41.824 74.92 42.464C75.752 43.104 76.856 43.424 78.232 43.424C78.392 43.424 78.472 43.52 78.472 43.712C78.472 43.904 78.392 44 78.232 44C77.656 44 76.824 43.968 75.736 43.904C74.52 43.84 73.464 43.808 72.568 43.808C71.704 43.808 70.664 43.84 69.448 43.904C68.36 43.968 67.48 44 66.808 44ZM122.205 44.576C119.229 44.576 116.573 43.888 114.237 42.512C111.933 41.104 110.141 39.216 108.861 36.848C107.613 34.448 106.989 31.84 106.989 29.024C106.989 25.728 107.821 22.912 109.485 20.576C111.149 18.208 113.277 16.432 115.869 15.248C118.493 14.064 121.165 13.472 123.885 13.472C126.925 13.472 129.597 14.192 131.901 15.632C134.205 17.04 135.965 18.912 137.181 21.248C138.429 23.584 139.053 26.064 139.053 28.688C139.053 31.6 138.285 34.272 136.749 36.704C135.213 39.136 133.149 41.056 130.557 42.464C127.997 43.872 125.213 44.576 122.205 44.576ZM123.789 43.376C125.581 43.376 127.181 42.864 128.589 41.84C130.029 40.784 131.149 39.264 131.949 37.28C132.749 35.264 133.149 32.864 133.149 30.08C133.149 27.136 132.701 24.512 131.805 22.208C130.909 19.872 129.613 18.048 127.917 16.736C126.221 15.424 124.237 14.768 121.965 14.768C119.053 14.768 116.813 15.872 115.245 18.08C113.677 20.256 112.893 23.312 112.893 27.248C112.893 30.352 113.357 33.136 114.285 35.6C115.245 38.032 116.541 39.936 118.173 41.312C119.837 42.688 121.709 43.376 123.789 43.376ZM154.477 15.104C150.669 15.104 147.933 17.584 146.269 22.544C146.237 22.64 146.141 22.688 145.981 22.688C145.821 22.656 145.741 22.592 145.741 22.496C145.869 21.216 146.013 19.568 146.173 17.552C146.333 15.504 146.413 13.968 146.413 12.944C146.413 12.784 146.493 12.704 146.653 12.704C146.845 12.704 146.941 12.784 146.941 12.944C146.941 13.648 147.853 14 149.677 14C152.429 14.096 155.645 14.144 159.325 14.144C161.213 14.144 163.213 14.112 165.325 14.048L168.589 14C169.805 14 170.685 13.92 171.229 13.76C171.805 13.6 172.173 13.28 172.333 12.8C172.365 12.672 172.461 12.608 172.621 12.608C172.813 12.608 172.909 12.672 172.909 12.8C172.813 13.76 172.701 15.296 172.573 17.408C172.477 19.52 172.429 21.216 172.429 22.496C172.429 22.592 172.349 22.64 172.189 22.64C172.029 22.64 171.933 22.592 171.901 22.496C171.421 20.032 170.525 18.192 169.213 16.976C167.901 15.728 166.285 15.104 164.365 15.104C163.437 15.104 162.813 15.312 162.493 15.728C162.205 16.112 162.061 16.864 162.061 17.984V40.112C162.061 41.104 162.157 41.824 162.349 42.272C162.541 42.72 162.909 43.024 163.453 43.184C163.997 43.344 164.861 43.424 166.045 43.424C166.141 43.424 166.189 43.52 166.189 43.712C166.189 43.904 166.141 44 166.045 44C164.893 44 163.981 43.984 163.309 43.952L159.325 43.904L155.437 43.952C154.765 43.984 153.837 44 152.653 44C152.557 44 152.509 43.904 152.509 43.712C152.509 43.52 152.557 43.424 152.653 43.424C153.805 43.424 154.653 43.344 155.197 43.184C155.773 43.024 156.157 42.72 156.349 42.272C156.573 41.792 156.685 41.072 156.685 40.112V17.888C156.685 16.8 156.541 16.064 156.253 15.68C155.965 15.296 155.373 15.104 154.477 15.104ZM195.229 44.576C192.253 44.576 189.597 43.888 187.261 42.512C184.957 41.104 183.165 39.216 181.885 36.848C180.637 34.448 180.013 31.84 180.013 29.024C180.013 25.728 180.845 22.912 182.509 20.576C184.173 18.208 186.301 16.432 188.893 15.248C191.517 14.064 194.189 13.472 196.909 13.472C199.949 13.472 202.621 14.192 204.925 15.632C207.229 17.04 208.989 18.912 210.205 21.248C211.453 23.584 212.077 26.064 212.077 28.688C212.077 31.6 211.309 34.272 209.773 36.704C208.237 39.136 206.173 41.056 203.581 42.464C201.021 43.872 198.237 44.576 195.229 44.576ZM196.813 43.376C198.605 43.376 200.205 42.864 201.613 41.84C203.053 40.784 204.173 39.264 204.973 37.28C205.773 35.264 206.173 32.864 206.173 30.08C206.173 27.136 205.725 24.512 204.829 22.208C203.933 19.872 202.637 18.048 200.941 16.736C199.245 15.424 197.261 14.768 194.989 14.768C192.077 14.768 189.837 15.872 188.269 18.08C186.701 20.256 185.917 23.312 185.917 27.248C185.917 30.352 186.381 33.136 187.309 35.6C188.269 38.032 189.565 39.936 191.197 41.312C192.861 42.688 194.733 43.376 196.813 43.376ZM238.459 13.472C239.867 13.472 241.339 13.6 242.875 13.856C244.411 14.08 245.611 14.384 246.475 14.768C246.763 14.864 246.939 14.992 247.003 15.152C247.099 15.28 247.179 15.52 247.243 15.872L247.819 22.544C247.819 22.64 247.739 22.704 247.579 22.736C247.419 22.768 247.323 22.72 247.291 22.592C246.203 20.064 244.747 18.112 242.923 16.736C241.099 15.36 238.987 14.672 236.587 14.672C233.419 14.672 230.971 15.84 229.243 18.176C227.515 20.512 226.651 23.648 226.651 27.584C226.651 30.528 227.115 33.216 228.043 35.648C229.003 38.08 230.331 40.016 232.027 41.456C233.755 42.864 235.707 43.568 237.883 43.568C239.931 43.568 241.755 42.896 243.355 41.552C244.987 40.176 246.443 38.096 247.723 35.312C247.755 35.184 247.851 35.136 248.011 35.168C248.203 35.2 248.299 35.264 248.299 35.36L247.579 41.888C247.515 42.272 247.435 42.528 247.339 42.656C247.275 42.752 247.099 42.864 246.811 42.992C243.963 44.048 241.035 44.576 238.027 44.576C234.123 44.576 230.859 43.808 228.235 42.272C225.611 40.704 223.675 38.736 222.427 36.368C221.211 33.968 220.603 31.472 220.603 28.88C220.603 25.84 221.419 23.152 223.051 20.816C224.715 18.48 226.907 16.672 229.627 15.392C232.379 14.112 235.323 13.472 238.459 13.472Z" fill="white"/>
<path d="M1.014 60L1.248 54.631H1.82L1.703 60H1.014ZM6.149 60L6.071 55.034L6.383 54.878L4.147 59.753H3.77L1.599 55.099L1.651 54.631H2.119L4.16 58.817H3.926L5.889 54.631H6.76L7.007 60H6.149ZM12.8857 60V54.618H13.7567V60H12.8857ZM9.02474 60V54.618H9.89574V60H9.02474ZM9.44074 57.634V56.971H13.3407V57.634H9.44074ZM18.0536 60.104C17.525 60.104 17.0526 59.987 16.6366 59.753C16.2293 59.519 15.9043 59.1983 15.6616 58.791C15.4276 58.375 15.3106 57.9027 15.3106 57.374C15.3106 56.8193 15.4363 56.3253 15.6876 55.892C15.9476 55.4587 16.2986 55.1207 16.7406 54.878C17.1826 54.6267 17.681 54.501 18.2356 54.501C18.7643 54.501 19.2323 54.618 19.6396 54.852C20.0556 55.086 20.3806 55.411 20.6146 55.827C20.8573 56.2343 20.9786 56.7023 20.9786 57.231C20.9786 57.7857 20.853 58.2797 20.6016 58.713C20.3503 59.1463 20.0036 59.4887 19.5616 59.74C19.1196 59.9827 18.617 60.104 18.0536 60.104ZM18.1706 59.48C18.5606 59.48 18.8943 59.3847 19.1716 59.194C19.449 58.9947 19.6613 58.7303 19.8086 58.401C19.956 58.0717 20.0296 57.712 20.0296 57.322C20.0296 56.8713 19.943 56.4857 19.7696 56.165C19.605 55.8357 19.3796 55.5843 19.0936 55.411C18.8076 55.229 18.4826 55.138 18.1186 55.138C17.7373 55.138 17.4036 55.2333 17.1176 55.424C16.8403 55.606 16.628 55.8617 16.4806 56.191C16.3333 56.5117 16.2596 56.8713 16.2596 57.27C16.2596 57.7207 16.342 58.1107 16.5066 58.44C16.68 58.7693 16.9096 59.025 17.1956 59.207C17.4903 59.389 17.8153 59.48 18.1706 59.48ZM22.5199 60V54.618H23.4039V60H22.5199ZM22.9749 55.294V54.618H26.1859V55.294H22.9749ZM29.5302 60.104C29.0015 60.104 28.5292 59.987 28.1132 59.753C27.7059 59.519 27.3809 59.1983 27.1382 58.791C26.9042 58.375 26.7872 57.9027 26.7872 57.374C26.7872 56.8193 26.9129 56.3253 27.1642 55.892C27.4242 55.4587 27.7752 55.1207 28.2172 54.878C28.6592 54.6267 29.1575 54.501 29.7122 54.501C30.2409 54.501 30.7089 54.618 31.1162 54.852C31.5322 55.086 31.8572 55.411 32.0912 55.827C32.3339 56.2343 32.4552 56.7023 32.4552 57.231C32.4552 57.7857 32.3295 58.2797 32.0782 58.713C31.8269 59.1463 31.4802 59.4887 31.0382 59.74C30.5962 59.9827 30.0935 60.104 29.5302 60.104ZM29.6472 59.48C30.0372 59.48 30.3709 59.3847 30.6482 59.194C30.9255 58.9947 31.1379 58.7303 31.2852 58.401C31.4325 58.0717 31.5062 57.712 31.5062 57.322C31.5062 56.8713 31.4195 56.4857 31.2462 56.165C31.0815 55.8357 30.8562 55.5843 30.5702 55.411C30.2842 55.229 29.9592 55.138 29.5952 55.138C29.2139 55.138 28.8802 55.2333 28.5942 55.424C28.3169 55.606 28.1045 55.8617 27.9572 56.191C27.8099 56.5117 27.7362 56.8713 27.7362 57.27C27.7362 57.7207 27.8185 58.1107 27.9832 58.44C28.1565 58.7693 28.3862 59.025 28.6722 59.207C28.9669 59.389 29.2919 59.48 29.6472 59.48ZM37.7924 60V54.618H38.6764V60H37.7924ZM33.9964 60V54.618H34.8674V60H33.9964ZM34.4124 55.281V54.618H38.2474V55.281H34.4124ZM43.2479 60.065C42.7799 60.065 42.3682 59.9523 42.0129 59.727C41.6662 59.5017 41.4019 59.1767 41.2199 58.752L41.4669 58.466C41.6489 58.778 41.8785 59.0163 42.1559 59.181C42.4419 59.3457 42.7582 59.428 43.1049 59.428C43.4949 59.428 43.8329 59.337 44.1189 59.155C44.4135 58.9643 44.6432 58.7087 44.8079 58.388C44.9725 58.0587 45.0549 57.6817 45.0549 57.257C45.0549 56.8583 44.9812 56.503 44.8339 56.191C44.6952 55.8703 44.4959 55.619 44.2359 55.437C43.9759 55.2463 43.6639 55.151 43.2999 55.151C42.9792 55.151 42.6585 55.2377 42.3379 55.411C42.0172 55.5757 41.7312 55.8573 41.4799 56.256L41.1549 56.074C41.4409 55.554 41.7789 55.1727 42.1689 54.93C42.5589 54.6787 43.0095 54.553 43.5209 54.553C44.0235 54.553 44.4612 54.6657 44.8339 54.891C45.2065 55.1163 45.4925 55.4283 45.6919 55.827C45.8999 56.217 46.0039 56.6677 46.0039 57.179C46.0039 57.7337 45.8782 58.2277 45.6269 58.661C45.3842 59.0943 45.0549 59.4367 44.6389 59.688C44.2315 59.9393 43.7679 60.065 43.2479 60.065ZM40.6869 63.757V54.618H41.4149L41.5709 55.749V63.614L40.6869 63.757ZM49.8427 60.104C49.314 60.104 48.8417 59.987 48.4257 59.753C48.0184 59.519 47.6934 59.1983 47.4507 58.791C47.2167 58.375 47.0997 57.9027 47.0997 57.374C47.0997 56.8193 47.2254 56.3253 47.4767 55.892C47.7367 55.4587 48.0877 55.1207 48.5297 54.878C48.9717 54.6267 49.47 54.501 50.0247 54.501C50.5534 54.501 51.0214 54.618 51.4287 54.852C51.8447 55.086 52.1697 55.411 52.4037 55.827C52.6464 56.2343 52.7677 56.7023 52.7677 57.231C52.7677 57.7857 52.642 58.2797 52.3907 58.713C52.1394 59.1463 51.7927 59.4887 51.3507 59.74C50.9087 59.9827 50.406 60.104 49.8427 60.104ZM49.9597 59.48C50.3497 59.48 50.6834 59.3847 50.9607 59.194C51.238 58.9947 51.4504 58.7303 51.5977 58.401C51.745 58.0717 51.8187 57.712 51.8187 57.322C51.8187 56.8713 51.732 56.4857 51.5587 56.165C51.394 55.8357 51.1687 55.5843 50.8827 55.411C50.5967 55.229 50.2717 55.138 49.9077 55.138C49.5264 55.138 49.1927 55.2333 48.9067 55.424C48.6294 55.606 48.417 55.8617 48.2697 56.191C48.1224 56.5117 48.0487 56.8713 48.0487 57.27C48.0487 57.7207 48.131 58.1107 48.2957 58.44C48.469 58.7693 48.6987 59.025 48.9847 59.207C49.2794 59.389 49.6044 59.48 49.9597 59.48ZM56.6619 63.757V51.524L57.4809 51.381V63.614L56.6619 63.757ZM56.8699 60.104C56.2893 60.104 55.7693 59.9957 55.3099 59.779C54.8506 59.5623 54.4909 59.2503 54.2309 58.843C53.9709 58.427 53.8409 57.9373 53.8409 57.374C53.8409 56.828 53.9666 56.3427 54.2179 55.918C54.4693 55.4847 54.8203 55.1423 55.2709 54.891C55.7303 54.6397 56.2633 54.514 56.8699 54.514V55.138C56.3759 55.138 55.9643 55.2333 55.6349 55.424C55.3143 55.6147 55.0716 55.8703 54.9069 56.191C54.7509 56.5117 54.6729 56.8713 54.6729 57.27C54.6729 57.712 54.7639 58.0977 54.9459 58.427C55.1366 58.7563 55.3923 59.0163 55.7129 59.207C56.0423 59.389 56.4279 59.48 56.8699 59.48V60.104ZM57.3379 60.104V59.48C57.7713 59.48 58.1439 59.3933 58.4559 59.22C58.7766 59.0467 59.0236 58.7997 59.1969 58.479C59.3789 58.1497 59.4699 57.764 59.4699 57.322C59.4699 56.88 59.3789 56.4987 59.1969 56.178C59.0236 55.8573 58.7766 55.606 58.4559 55.424C58.1439 55.242 57.7713 55.1467 57.3379 55.138V54.514C57.9013 54.514 58.4039 54.6267 58.8459 54.852C59.2966 55.0687 59.6519 55.3807 59.9119 55.788C60.1806 56.1867 60.3149 56.6677 60.3149 57.231C60.3149 57.777 60.1893 58.2667 59.9379 58.7C59.6866 59.1247 59.3399 59.4627 58.8979 59.714C58.4559 59.9567 57.9359 60.0867 57.3379 60.104ZM65.9053 60L65.9703 54.618H66.7893V60H65.9053ZM61.8753 60V54.618H62.7463L62.6813 60H61.8753ZM62.4213 60V59.61L65.7753 54.618H66.2693V55.021L62.9153 60H62.4213ZM68.131 60L70.445 54.618H71.212L73.526 60H72.577L70.588 54.943H70.965L69.028 60H68.131ZM74.8753 60V54.618H75.7333V59.337H76.8773C77.2847 59.337 77.601 59.246 77.8263 59.064C78.0603 58.8733 78.1773 58.609 78.1773 58.271C78.1773 57.9157 78.0473 57.6383 77.7873 57.439C77.5273 57.231 77.1633 57.127 76.6953 57.127H75.5253V56.477H76.8513C77.1807 56.477 77.4753 56.516 77.7353 56.594C78.004 56.6633 78.2293 56.7717 78.4113 56.919C78.5933 57.0663 78.732 57.2397 78.8273 57.439C78.9313 57.6383 78.9833 57.868 78.9833 58.128C78.9833 58.5007 78.8837 58.83 78.6843 59.116C78.4937 59.3933 78.225 59.61 77.8783 59.766C77.5317 59.922 77.12 60 76.6433 60H74.8753ZM84.2207 60V54.618H85.0917V60H84.2207ZM80.3597 60V54.618H81.2307V60H80.3597ZM80.7757 57.634V56.971H84.6757V57.634H80.7757ZM89.3886 60.104C88.8599 60.104 88.3876 59.987 87.9716 59.753C87.5643 59.519 87.2393 59.1983 86.9966 58.791C86.7626 58.375 86.6456 57.9027 86.6456 57.374C86.6456 56.8193 86.7713 56.3253 87.0226 55.892C87.2826 55.4587 87.6336 55.1207 88.0756 54.878C88.5176 54.6267 89.0159 54.501 89.5706 54.501C90.0993 54.501 90.5673 54.618 90.9746 54.852C91.3906 55.086 91.7156 55.411 91.9496 55.827C92.1923 56.2343 92.3136 56.7023 92.3136 57.231C92.3136 57.7857 92.1879 58.2797 91.9366 58.713C91.6853 59.1463 91.3386 59.4887 90.8966 59.74C90.4546 59.9827 89.9519 60.104 89.3886 60.104ZM89.5056 59.48C89.8956 59.48 90.2293 59.3847 90.5066 59.194C90.7839 58.9947 90.9963 58.7303 91.1436 58.401C91.2909 58.0717 91.3646 57.712 91.3646 57.322C91.3646 56.8713 91.2779 56.4857 91.1046 56.165C90.9399 55.8357 90.7146 55.5843 90.4286 55.411C90.1426 55.229 89.8176 55.138 89.4536 55.138C89.0723 55.138 88.7386 55.2333 88.4526 55.424C88.1753 55.606 87.9629 55.8617 87.8156 56.191C87.6683 56.5117 87.5946 56.8713 87.5946 57.27C87.5946 57.7207 87.6769 58.1107 87.8416 58.44C88.0149 58.7693 88.2446 59.025 88.5306 59.207C88.8253 59.389 89.1503 59.48 89.5056 59.48ZM96.0518 60.117C95.5405 60.117 95.0898 60.013 94.6998 59.805C94.3098 59.5883 94.0022 59.285 93.7768 58.895C93.5602 58.4963 93.4518 58.0283 93.4518 57.491C93.4518 56.893 93.5732 56.373 93.8158 55.931C94.0672 55.4803 94.4008 55.1337 94.8168 54.891C95.2415 54.6397 95.7182 54.514 96.2468 54.514C96.8882 54.514 97.3692 54.696 97.6898 55.06C98.0105 55.424 98.1708 55.9223 98.1708 56.555C98.1708 56.6243 98.1665 56.7023 98.1578 56.789C98.1578 56.867 98.1535 56.9407 98.1448 57.01H97.3778V56.555C97.3778 56.087 97.2825 55.736 97.0918 55.502C96.9012 55.2593 96.6022 55.138 96.1948 55.138C95.8135 55.138 95.4798 55.2333 95.1938 55.424C94.9078 55.606 94.6868 55.8617 94.5308 56.191C94.3748 56.5203 94.2968 56.9147 94.2968 57.374C94.2968 57.998 94.4745 58.4963 94.8298 58.869C95.1852 59.233 95.6488 59.415 96.2208 59.415C96.5155 59.415 96.7972 59.363 97.0658 59.259C97.3345 59.155 97.5945 58.986 97.8458 58.752L98.1708 59.233C97.9368 59.4497 97.6985 59.623 97.4558 59.753C97.2218 59.883 96.9878 59.974 96.7538 60.026C96.5198 60.0867 96.2858 60.117 96.0518 60.117ZM93.9458 57.01L94.0628 56.451H98.0278V57.01H93.9458ZM102.983 60V54.618H103.841V60H102.983ZM103.399 57.634V56.971H105.505V57.634H103.399ZM107.611 60.104C107.108 60.104 106.666 59.9913 106.285 59.766C105.903 59.532 105.609 59.2113 105.401 58.804C105.193 58.3967 105.089 57.92 105.089 57.374C105.089 56.802 105.201 56.3037 105.427 55.879C105.661 55.4457 105.977 55.1077 106.376 54.865C106.783 54.6223 107.251 54.501 107.78 54.501C108.291 54.501 108.746 54.618 109.145 54.852C109.543 55.0773 109.855 55.3937 110.081 55.801C110.306 56.2083 110.419 56.685 110.419 57.231C110.419 57.8117 110.293 58.3187 110.042 58.752C109.799 59.1767 109.465 59.5103 109.041 59.753C108.625 59.987 108.148 60.104 107.611 60.104ZM107.702 59.454C108.083 59.454 108.408 59.3587 108.677 59.168C108.945 58.9773 109.149 58.7217 109.288 58.401C109.426 58.0717 109.496 57.7077 109.496 57.309C109.496 56.633 109.322 56.1087 108.976 55.736C108.629 55.3547 108.187 55.164 107.65 55.164C107.104 55.164 106.679 55.3633 106.376 55.762C106.081 56.1607 105.934 56.6677 105.934 57.283C105.934 57.9677 106.098 58.5007 106.428 58.882C106.757 59.2633 107.182 59.454 107.702 59.454ZM114.545 60.065C114.077 60.065 113.665 59.9523 113.31 59.727C112.963 59.5017 112.699 59.1767 112.517 58.752L112.764 58.466C112.946 58.778 113.175 59.0163 113.453 59.181C113.739 59.3457 114.055 59.428 114.402 59.428C114.792 59.428 115.13 59.337 115.416 59.155C115.71 58.9643 115.94 58.7087 116.105 58.388C116.269 58.0587 116.352 57.6817 116.352 57.257C116.352 56.8583 116.278 56.503 116.131 56.191C115.992 55.8703 115.793 55.619 115.533 55.437C115.273 55.2463 114.961 55.151 114.597 55.151C114.276 55.151 113.955 55.2377 113.635 55.411C113.314 55.5757 113.028 55.8573 112.777 56.256L112.452 56.074C112.738 55.554 113.076 55.1727 113.466 54.93C113.856 54.6787 114.306 54.553 114.818 54.553C115.32 54.553 115.758 54.6657 116.131 54.891C116.503 55.1163 116.789 55.4283 116.989 55.827C117.197 56.217 117.301 56.6677 117.301 57.179C117.301 57.7337 117.175 58.2277 116.924 58.661C116.681 59.0943 116.352 59.4367 115.936 59.688C115.528 59.9393 115.065 60.065 114.545 60.065ZM111.984 63.757V54.618H112.712L112.868 55.749V63.614L111.984 63.757ZM122.895 60L122.96 54.618H123.779V60H122.895ZM118.865 60V54.618H119.736L119.671 60H118.865ZM119.411 60V59.61L122.765 54.618H123.259V55.021L119.905 60H119.411ZM125.432 60L127.72 54.618H128.695L130.97 60H130.021L127.993 55.034H128.227L126.238 60H125.432ZM125.12 61.95L125.003 59.35H125.913L125.796 61.95H125.12ZM125.432 60L125.003 59.35H131.373L130.983 60H125.432ZM130.593 61.95L130.476 59.35H131.373L131.256 61.95H130.593ZM136.644 60L136.709 54.618H137.528V60H136.644ZM132.614 60V54.618H133.485L133.42 60H132.614ZM133.16 60V59.61L136.514 54.618H137.008V55.021L133.654 60H133.16ZM141.209 58.076C140.62 58.076 140.152 57.9113 139.805 57.582C139.459 57.244 139.285 56.789 139.285 56.217V54.618H140.156V55.918C140.156 56.386 140.273 56.7543 140.507 57.023C140.75 57.283 141.097 57.413 141.547 57.413C141.738 57.413 141.933 57.3913 142.132 57.348C142.332 57.296 142.518 57.2397 142.691 57.179C142.865 57.1097 142.999 57.0447 143.094 56.984L143.263 57.452C143.116 57.5647 142.93 57.6687 142.704 57.764C142.479 57.8593 142.236 57.9373 141.976 57.998C141.716 58.05 141.461 58.076 141.209 58.076ZM142.873 60V54.618H143.77V60H142.873ZM147.988 60.117C147.477 60.117 147.026 60.013 146.636 59.805C146.246 59.5883 145.939 59.285 145.713 58.895C145.497 58.4963 145.388 58.0283 145.388 57.491C145.388 56.893 145.51 56.373 145.752 55.931C146.004 55.4803 146.337 55.1337 146.753 54.891C147.178 54.6397 147.655 54.514 148.183 54.514C148.825 54.514 149.306 54.696 149.626 55.06C149.947 55.424 150.107 55.9223 150.107 56.555C150.107 56.6243 150.103 56.7023 150.094 56.789C150.094 56.867 150.09 56.9407 150.081 57.01H149.314V56.555C149.314 56.087 149.219 55.736 149.028 55.502C148.838 55.2593 148.539 55.138 148.131 55.138C147.75 55.138 147.416 55.2333 147.13 55.424C146.844 55.606 146.623 55.8617 146.467 56.191C146.311 56.5203 146.233 56.9147 146.233 57.374C146.233 57.998 146.411 58.4963 146.766 58.869C147.122 59.233 147.585 59.415 148.157 59.415C148.452 59.415 148.734 59.363 149.002 59.259C149.271 59.155 149.531 58.986 149.782 58.752L150.107 59.233C149.873 59.4497 149.635 59.623 149.392 59.753C149.158 59.883 148.924 59.974 148.69 60.026C148.456 60.0867 148.222 60.117 147.988 60.117ZM145.882 57.01L145.999 56.451H149.964V57.01H145.882ZM153.982 60.104C153.453 60.104 152.985 59.9913 152.578 59.766C152.171 59.532 151.846 59.2113 151.603 58.804C151.369 58.388 151.252 57.9157 151.252 57.387C151.252 56.8323 151.378 56.3383 151.629 55.905C151.88 55.4717 152.223 55.1293 152.656 54.878C153.089 54.6267 153.579 54.501 154.125 54.501C154.498 54.501 154.831 54.5617 155.126 54.683C155.421 54.8043 155.685 54.969 155.919 55.177L155.542 55.866C155.325 55.6407 155.091 55.4673 154.84 55.346C154.589 55.2247 154.316 55.164 154.021 55.164C153.648 55.164 153.323 55.2593 153.046 55.45C152.769 55.6407 152.556 55.8963 152.409 56.217C152.27 56.5377 152.201 56.8973 152.201 57.296C152.201 57.7207 152.288 58.0933 152.461 58.414C152.634 58.7347 152.873 58.9817 153.176 59.155C153.488 59.3283 153.835 59.415 154.216 59.415C154.485 59.415 154.749 59.363 155.009 59.259C155.269 59.1463 155.503 58.9903 155.711 58.791L156.01 59.298C155.811 59.4887 155.598 59.6447 155.373 59.766C155.148 59.8873 154.918 59.974 154.684 60.026C154.45 60.078 154.216 60.104 153.982 60.104ZM161.035 60L158.188 57.192L160.97 54.618H162.114L158.812 57.439V56.828L162.205 60H161.035ZM157.395 60V54.618H158.266V60H157.395ZM165.472 60.104C164.943 60.104 164.471 59.987 164.055 59.753C163.647 59.519 163.322 59.1983 163.08 58.791C162.846 58.375 162.729 57.9027 162.729 57.374C162.729 56.8193 162.854 56.3253 163.106 55.892C163.366 55.4587 163.717 55.1207 164.159 54.878C164.601 54.6267 165.099 54.501 165.654 54.501C166.182 54.501 166.65 54.618 167.058 54.852C167.474 55.086 167.799 55.411 168.033 55.827C168.275 56.2343 168.397 56.7023 168.397 57.231C168.397 57.7857 168.271 58.2797 168.02 58.713C167.768 59.1463 167.422 59.4887 166.98 59.74C166.538 59.9827 166.035 60.104 165.472 60.104ZM165.589 59.48C165.979 59.48 166.312 59.3847 166.59 59.194C166.867 58.9947 167.079 58.7303 167.227 58.401C167.374 58.0717 167.448 57.712 167.448 57.322C167.448 56.8713 167.361 56.4857 167.188 56.165C167.023 55.8357 166.798 55.5843 166.512 55.411C166.226 55.229 165.901 55.138 165.537 55.138C165.155 55.138 164.822 55.2333 164.536 55.424C164.258 55.606 164.046 55.8617 163.899 56.191C163.751 56.5117 163.678 56.8713 163.678 57.27C163.678 57.7207 163.76 58.1107 163.925 58.44C164.098 58.7693 164.328 59.025 164.614 59.207C164.908 59.389 165.233 59.48 165.589 59.48ZM172.135 60.117C171.623 60.117 171.173 60.013 170.783 59.805C170.393 59.5883 170.085 59.285 169.86 58.895C169.643 58.4963 169.535 58.0283 169.535 57.491C169.535 56.893 169.656 56.373 169.899 55.931C170.15 55.4803 170.484 55.1337 170.9 54.891C171.324 54.6397 171.801 54.514 172.33 54.514C172.971 54.514 173.452 54.696 173.773 55.06C174.093 55.424 174.254 55.9223 174.254 56.555C174.254 56.6243 174.249 56.7023 174.241 56.789C174.241 56.867 174.236 56.9407 174.228 57.01H173.461V56.555C173.461 56.087 173.365 55.736 173.175 55.502C172.984 55.2593 172.685 55.138 172.278 55.138C171.896 55.138 171.563 55.2333 171.277 55.424C170.991 55.606 170.77 55.8617 170.614 56.191C170.458 56.5203 170.38 56.9147 170.38 57.374C170.38 57.998 170.557 58.4963 170.913 58.869C171.268 59.233 171.732 59.415 172.304 59.415C172.598 59.415 172.88 59.363 173.149 59.259C173.417 59.155 173.677 58.986 173.929 58.752L174.254 59.233C174.02 59.4497 173.781 59.623 173.539 59.753C173.305 59.883 173.071 59.974 172.837 60.026C172.603 60.0867 172.369 60.117 172.135 60.117ZM170.029 57.01L170.146 56.451H174.111V57.01H170.029ZM182.862 60V54.618H183.746V60H182.862ZM179.066 60V54.618H179.937V60H179.066ZM179.482 55.281V54.618H183.317V55.281H179.482ZM188.317 60.065C187.849 60.065 187.438 59.9523 187.082 59.727C186.736 59.5017 186.471 59.1767 186.289 58.752L186.536 58.466C186.718 58.778 186.948 59.0163 187.225 59.181C187.511 59.3457 187.828 59.428 188.174 59.428C188.564 59.428 188.902 59.337 189.188 59.155C189.483 58.9643 189.713 58.7087 189.877 58.388C190.042 58.0587 190.124 57.6817 190.124 57.257C190.124 56.8583 190.051 56.503 189.903 56.191C189.765 55.8703 189.565 55.619 189.305 55.437C189.045 55.2463 188.733 55.151 188.369 55.151C188.049 55.151 187.728 55.2377 187.407 55.411C187.087 55.5757 186.801 55.8573 186.549 56.256L186.224 56.074C186.51 55.554 186.848 55.1727 187.238 54.93C187.628 54.6787 188.079 54.553 188.59 54.553C189.093 54.553 189.531 54.6657 189.903 54.891C190.276 55.1163 190.562 55.4283 190.761 55.827C190.969 56.217 191.073 56.6677 191.073 57.179C191.073 57.7337 190.948 58.2277 190.696 58.661C190.454 59.0943 190.124 59.4367 189.708 59.688C189.301 59.9393 188.837 60.065 188.317 60.065ZM185.756 63.757V54.618H186.484L186.64 55.749V63.614L185.756 63.757ZM194.834 60.117C194.323 60.117 193.872 60.013 193.482 59.805C193.092 59.5883 192.784 59.285 192.559 58.895C192.342 58.4963 192.234 58.0283 192.234 57.491C192.234 56.893 192.355 56.373 192.598 55.931C192.849 55.4803 193.183 55.1337 193.599 54.891C194.024 54.6397 194.5 54.514 195.029 54.514C195.67 54.514 196.151 54.696 196.472 55.06C196.793 55.424 196.953 55.9223 196.953 56.555C196.953 56.6243 196.949 56.7023 196.94 56.789C196.94 56.867 196.936 56.9407 196.927 57.01H196.16V56.555C196.16 56.087 196.065 55.736 195.874 55.502C195.683 55.2593 195.384 55.138 194.977 55.138C194.596 55.138 194.262 55.2333 193.976 55.424C193.69 55.606 193.469 55.8617 193.313 56.191C193.157 56.5203 193.079 56.9147 193.079 57.374C193.079 57.998 193.257 58.4963 193.612 58.869C193.967 59.233 194.431 59.415 195.003 59.415C195.298 59.415 195.579 59.363 195.848 59.259C196.117 59.155 196.377 58.986 196.628 58.752L196.953 59.233C196.719 59.4497 196.481 59.623 196.238 59.753C196.004 59.883 195.77 59.974 195.536 60.026C195.302 60.0867 195.068 60.117 194.834 60.117ZM192.728 57.01L192.845 56.451H196.81V57.01H192.728ZM198.202 60L200.49 54.618H201.465L203.74 60H202.791L200.763 55.034H200.997L199.008 60H198.202ZM197.89 61.95L197.773 59.35H198.683L198.566 61.95H197.89ZM198.202 60L197.773 59.35H204.143L203.753 60H198.202ZM203.363 61.95L203.246 59.35H204.143L204.026 61.95H203.363ZM209.179 60V54.618H210.063V60H209.179ZM205.383 60V54.618H206.254V60H205.383ZM205.799 55.281V54.618H209.634V55.281H205.799ZM214.635 60.065C214.167 60.065 213.755 59.9523 213.4 59.727C213.053 59.5017 212.789 59.1767 212.607 58.752L212.854 58.466C213.036 58.778 213.265 59.0163 213.543 59.181C213.829 59.3457 214.145 59.428 214.492 59.428C214.882 59.428 215.22 59.337 215.506 59.155C215.8 58.9643 216.03 58.7087 216.195 58.388C216.359 58.0587 216.442 57.6817 216.442 57.257C216.442 56.8583 216.368 56.503 216.221 56.191C216.082 55.8703 215.883 55.619 215.623 55.437C215.363 55.2463 215.051 55.151 214.687 55.151C214.366 55.151 214.045 55.2377 213.725 55.411C213.404 55.5757 213.118 55.8573 212.867 56.256L212.542 56.074C212.828 55.554 213.166 55.1727 213.556 54.93C213.946 54.6787 214.396 54.553 214.908 54.553C215.41 54.553 215.848 54.6657 216.221 54.891C216.593 55.1163 216.879 55.4283 217.079 55.827C217.287 56.217 217.391 56.6677 217.391 57.179C217.391 57.7337 217.265 58.2277 217.014 58.661C216.771 59.0943 216.442 59.4367 216.026 59.688C215.618 59.9393 215.155 60.065 214.635 60.065ZM212.074 63.757V54.618H212.802L212.958 55.749V63.614L212.074 63.757ZM222.984 60L223.049 54.618H223.868V60H222.984ZM218.954 60V54.618H219.825L219.76 60H218.954ZM219.5 60V59.61L222.854 54.618H223.348V55.021L219.994 60H219.5ZM229.227 60V55.229H227.927C227.554 55.229 227.264 55.3157 227.056 55.489C226.848 55.6537 226.744 55.8877 226.744 56.191C226.744 56.5203 226.865 56.7717 227.108 56.945C227.359 57.1183 227.702 57.205 228.135 57.205C228.317 57.205 228.551 57.1963 228.837 57.179C229.123 57.153 229.374 57.1183 229.591 57.075V57.673C229.366 57.7163 229.114 57.7467 228.837 57.764C228.56 57.7813 228.321 57.79 228.122 57.79C227.446 57.79 226.909 57.6643 226.51 57.413C226.111 57.153 225.912 56.763 225.912 56.243C225.912 55.7317 226.103 55.333 226.484 55.047C226.865 54.7523 227.394 54.605 228.07 54.605H230.033V60H229.227ZM225.535 60L227.329 57.4L227.901 57.66L226.562 60H225.535ZM233.473 60V54.618H234.357V60H233.473ZM231.341 55.281V54.618H236.489V55.281H231.341ZM241.85 60L241.915 54.618H242.734V60H241.85ZM237.82 60V54.618H238.691L238.626 60H237.82ZM238.366 60V59.61L241.72 54.618H242.214V55.021L238.86 60H238.366ZM246.948 60.117C246.437 60.117 245.986 60.013 245.596 59.805C245.206 59.5883 244.899 59.285 244.673 58.895C244.457 58.4963 244.348 58.0283 244.348 57.491C244.348 56.893 244.47 56.373 244.712 55.931C244.964 55.4803 245.297 55.1337 245.713 54.891C246.138 54.6397 246.615 54.514 247.143 54.514C247.785 54.514 248.266 54.696 248.586 55.06C248.907 55.424 249.067 55.9223 249.067 56.555C249.067 56.6243 249.063 56.7023 249.054 56.789C249.054 56.867 249.05 56.9407 249.041 57.01H248.274V56.555C248.274 56.087 248.179 55.736 247.988 55.502C247.798 55.2593 247.499 55.138 247.091 55.138C246.71 55.138 246.376 55.2333 246.09 55.424C245.804 55.606 245.583 55.8617 245.427 56.191C245.271 56.5203 245.193 56.9147 245.193 57.374C245.193 57.998 245.371 58.4963 245.726 58.869C246.082 59.233 246.545 59.415 247.117 59.415C247.412 59.415 247.694 59.363 247.962 59.259C248.231 59.155 248.491 58.986 248.742 58.752L249.067 59.233C248.833 59.4497 248.595 59.623 248.352 59.753C248.118 59.883 247.884 59.974 247.65 60.026C247.416 60.0867 247.182 60.117 246.948 60.117ZM244.842 57.01L244.959 56.451H248.924V57.01H244.842Z" fill="white"/>
</svg>
